<mxfile host="app.diagrams.net" modified="2021-11-12T01:47:43.899Z" agent="5.0 (Macintosh; Intel Mac OS X 10_14_6) AppleWebKit/537.36 (KHTML, like Gecko) Chrome/74.0.3729.108 Safari/537.36" etag="mg4HBmD1QMGNcKR_rQTC" version="15.7.3" type="github">
  <diagram id="90YsTJR7cttdkRGjFHFI" name="Page-1">
    <mxGraphModel dx="1810" dy="1663" grid="1" gridSize="10" guides="1" tooltips="1" connect="1" arrows="1" fold="1" page="1" pageScale="1" pageWidth="827" pageHeight="1169" math="0" shadow="0">
      <root>
        <mxCell id="0" />
        <mxCell id="1" parent="0" />
        <mxCell id="GPYX-4Czh6kR8o7AbtnO-3" style="edgeStyle=orthogonalEdgeStyle;rounded=0;orthogonalLoop=1;jettySize=auto;html=1;entryX=0.5;entryY=0;entryDx=0;entryDy=0;dashed=1;dashPattern=1 2;" edge="1" parent="1" source="GPYX-4Czh6kR8o7AbtnO-1" target="GPYX-4Czh6kR8o7AbtnO-2">
          <mxGeometry relative="1" as="geometry" />
        </mxCell>
        <mxCell id="GPYX-4Czh6kR8o7AbtnO-1" value="" style="rounded=1;whiteSpace=wrap;html=1;" vertex="1" parent="1">
          <mxGeometry x="-80" y="-490" width="120" height="40" as="geometry" />
        </mxCell>
        <mxCell id="GPYX-4Czh6kR8o7AbtnO-2" value="" style="rhombus;whiteSpace=wrap;html=1;" vertex="1" parent="1">
          <mxGeometry x="-60" y="-320" width="80" height="80" as="geometry" />
        </mxCell>
      </root>
    </mxGraphModel>
  </diagram>
</mxfile>
